<?xml version="1.0" encoding="UTF-8"?>
<!DOCTYPE svg PUBLIC "-//W3C//DTD SVG 1.1//EN" "http://www.w3.org/Graphics/SVG/1.1/DTD/svg11.dtd">
<svg xmlns="http://www.w3.org/2000/svg" version="1.1" width="217px" height="121px" style="shape-rendering:geometricPrecision; text-rendering:geometricPrecision; image-rendering:optimizeQuality; fill-rule:evenodd; clip-rule:evenodd" xmlns:xlink="http://www.w3.org/1999/xlink">
<g><path style="opacity:1" fill="#f1f1f1" d="M -0.5,-0.5 C 71.8333,-0.5 144.167,-0.5 216.5,-0.5C 216.5,39.8333 216.5,80.1667 216.5,120.5C 144.167,120.5 71.8333,120.5 -0.5,120.5C -0.5,80.1667 -0.5,39.8333 -0.5,-0.5 Z"/></g>
<g><path style="opacity:1" fill="#0aa9eb" d="M 72.5,7.5 C 95.5024,7.33337 118.502,7.50004 141.5,8C 151.218,10.051 157.385,15.8843 160,25.5C 160.667,48.5 160.667,71.5 160,94.5C 157.596,103.237 152.096,109.071 143.5,112C 119.833,112.667 96.1667,112.667 72.5,112C 63.8946,109.062 58.3946,103.229 56,94.5C 55.3333,71.5 55.3333,48.5 56,25.5C 58.5834,16.7529 64.0834,10.7529 72.5,7.5 Z"/></g>
<g><path style="opacity:1" fill="#fafdfe" d="M 92.5,29.5 C 106.126,27.3806 118.126,30.7139 128.5,39.5C 129.521,40.0016 129.688,40.6683 129,41.5C 111.898,35.4608 97.2316,39.1275 85,52.5C 81.1519,58.6197 80.6519,64.953 83.5,71.5C 83.1667,71.8333 82.8333,72.1667 82.5,72.5C 81.3887,71.3887 80.0554,70.722 78.5,70.5C 75.8702,71.3779 73.2035,72.0445 70.5,72.5C 70.3645,69.4486 70.6978,66.4486 71.5,63.5C 67.2928,53.1432 69.2928,44.3099 77.5,37C 82.3133,33.9267 87.3133,31.4267 92.5,29.5 Z"/></g>
<g><path style="opacity:1" fill="#fdfefe" d="M 109.5,40.5 C 122.616,39.3435 133.782,43.3435 143,52.5C 149.024,63.1457 147.19,72.1457 137.5,79.5C 136.675,83.1224 136.175,86.789 136,90.5C 129.628,85.3248 122.461,83.9915 114.5,86.5C 103.547,86.4371 94.3807,82.4371 87,74.5C 80.9047,62.78 83.4047,53.28 94.5,46C 99.3044,43.3912 104.304,41.5579 109.5,40.5 Z"/></g>
</svg>
